<?xml version="1.0" encoding="UTF-8" standalone="no"?>
<!-- Created with Inkscape (http://www.inkscape.org/) -->

<svg
   xmlns:dc="http://purl.org/dc/elements/1.1/"
   xmlns:cc="http://creativecommons.org/ns#"
   xmlns:rdf="http://www.w3.org/1999/02/22-rdf-syntax-ns#"
   xmlns:svg="http://www.w3.org/2000/svg"
   xmlns="http://www.w3.org/2000/svg"
   xmlns:xlink="http://www.w3.org/1999/xlink"
   xmlns:sodipodi="http://sodipodi.sourceforge.net/DTD/sodipodi-0.dtd"
   xmlns:inkscape="http://www.inkscape.org/namespaces/inkscape"
   width="521"
   height="453.9816"
   id="svg3135"
   version="1.1"
   inkscape:version="0.48.1 r9760"
   sodipodi:docname="monitor-empty.svg">
  <title
     id="title3066">Empty monitor</title>
  <defs
     id="defs3137">
    <filter
       color-interpolation-filters="sRGB"
       inkscape:collect="always"
       id="filter6203"
       x="-0.038357504"
       width="1.076715"
       y="-0.49864754"
       height="1.9972951">
      <feGaussianBlur
         inkscape:collect="always"
         stdDeviation="8.3107924"
         id="feGaussianBlur6205" />
    </filter>
    <linearGradient
       inkscape:collect="always"
       xlink:href="#linearGradient6175"
       id="linearGradient6289"
       gradientUnits="userSpaceOnUse"
       gradientTransform="matrix(1,0,0,0.88271602,0,-257.5884)"
       x1="390"
       y1="1135"
       x2="390"
       y2="1225" />
    <linearGradient
       inkscape:collect="always"
       id="linearGradient6175">
      <stop
         style="stop-color:#000000;stop-opacity:1;"
         offset="0"
         id="stop6177" />
      <stop
         style="stop-color:#000000;stop-opacity:0;"
         offset="1"
         id="stop6179" />
    </linearGradient>
    <filter
       color-interpolation-filters="sRGB"
       inkscape:collect="always"
       id="filter6199">
      <feGaussianBlur
         inkscape:collect="always"
         stdDeviation="0.8736111"
         id="feGaussianBlur6201" />
    </filter>
    <radialGradient
       inkscape:collect="always"
       xlink:href="#linearGradient3962"
       id="radialGradient6326"
       gradientUnits="userSpaceOnUse"
       gradientTransform="matrix(1,0,0,0.22222224,40,-76.5148)"
       cx="335"
       cy="894.88867"
       fx="335"
       fy="894.88867"
       r="135" />
    <linearGradient
       id="linearGradient3962">
      <stop
         id="stop3964"
         offset="0"
         style="stop-color:#c8c8c8;stop-opacity:1;" />
      <stop
         id="stop3966"
         offset="1"
         style="stop-color:#c8c8c8;stop-opacity:0;" />
    </linearGradient>
    <filter
       inkscape:collect="always"
       id="filter4074"
       color-interpolation-filters="sRGB">
      <feGaussianBlur
         inkscape:collect="always"
         stdDeviation="0.35873397"
         id="feGaussianBlur4076" />
    </filter>
    <radialGradient
       inkscape:collect="always"
       xlink:href="#linearGradient3983"
       id="radialGradient6293"
       gradientUnits="userSpaceOnUse"
       gradientTransform="matrix(0.92592593,5.1302294e-8,-2.1698483e-8,0.09876549,27.037039,386.20293)"
       cx="365"
       cy="298.61212"
       fx="365"
       fy="298.61212"
       r="135" />
    <linearGradient
       id="linearGradient3983">
      <stop
         id="stop3985"
         offset="0"
         style="stop-color:#c8c8c8;stop-opacity:1;" />
      <stop
         id="stop3987"
         offset="1"
         style="stop-color:#1e1e1e;stop-opacity:1;" />
    </linearGradient>
    <linearGradient
       inkscape:collect="always"
       xlink:href="#linearGradient3888"
       id="linearGradient6295"
       gradientUnits="userSpaceOnUse"
       x1="350"
       y1="782.36218"
       x2="350"
       y2="842.36218" />
    <linearGradient
       id="linearGradient3888">
      <stop
         id="stop3890"
         offset="0"
         style="stop-color:#646464;stop-opacity:1;" />
      <stop
         id="stop3892"
         offset="1"
         style="stop-color:#000000;stop-opacity:1;" />
    </linearGradient>
    <linearGradient
       inkscape:collect="always"
       xlink:href="#linearGradient4016"
       id="linearGradient6297"
       gradientUnits="userSpaceOnUse"
       x1="342"
       y1="809.10095"
       x2="378.68802"
       y2="809.10095" />
    <linearGradient
       id="linearGradient4016">
      <stop
         id="stop4018"
         offset="0"
         style="stop-color:#a0a0a0;stop-opacity:1;" />
      <stop
         style="stop-color:#ffffff;stop-opacity:1;"
         offset="0.5"
         id="stop4022" />
      <stop
         id="stop4020"
         offset="1"
         style="stop-color:#a0a0a0;stop-opacity:1;" />
    </linearGradient>
    <filter
       inkscape:collect="always"
       id="filter4086"
       x="-0.13200003"
       width="1.2640001"
       y="-0.10999998"
       height="1.22"
       color-interpolation-filters="sRGB">
      <feGaussianBlur
         inkscape:collect="always"
         stdDeviation="2.0178415"
         id="feGaussianBlur4088" />
    </filter>
    <filter
       inkscape:collect="always"
       id="filter4070"
       x="-0.039464425"
       width="1.0789289"
       y="-0.12509294"
       height="1.2501858"
       color-interpolation-filters="sRGB">
      <feGaussianBlur
         inkscape:collect="always"
         stdDeviation="1.3144531"
         id="feGaussianBlur4072" />
    </filter>
    <radialGradient
       inkscape:collect="always"
       xlink:href="#linearGradient3888"
       id="radialGradient6340"
       gradientUnits="userSpaceOnUse"
       gradientTransform="matrix(2.0769221,-3.8479378e-8,0,1.2307686,-67.69221,-367.98177)"
       cx="100"
       cy="363.97498"
       fx="100"
       fy="363.97498"
       r="260.00012" />
    <radialGradient
       inkscape:collect="always"
       xlink:href="#linearGradient3925"
       id="radialGradient6314"
       gradientUnits="userSpaceOnUse"
       gradientTransform="matrix(1.3076923,0,-1.2630978e-8,1.6923079,-15.384609,-807.66848)"
       cx="180"
       cy="583.61462"
       fx="180"
       fy="583.61462"
       r="130" />
    <linearGradient
       id="linearGradient3925">
      <stop
         style="stop-color:#a0a0a0;stop-opacity:1;"
         offset="0"
         id="stop3927" />
      <stop
         style="stop-color:#a0a0a0;stop-opacity:0;"
         offset="1"
         id="stop3929" />
    </linearGradient>
    <radialGradient
       inkscape:collect="always"
       xlink:href="#linearGradient4189"
       id="radialGradient6305"
       gradientUnits="userSpaceOnUse"
       cx="575"
       cy="767.36218"
       fx="575"
       fy="767.36218"
       r="5" />
    <linearGradient
       inkscape:collect="always"
       id="linearGradient4189">
      <stop
         style="stop-color:#00ff00;stop-opacity:1;"
         offset="0"
         id="stop4191" />
      <stop
         style="stop-color:#00ff00;stop-opacity:0;"
         offset="1"
         id="stop4193" />
    </linearGradient>
    <radialGradient
       inkscape:collect="always"
       xlink:href="#linearGradient3962"
       id="radialGradient3067"
       gradientUnits="userSpaceOnUse"
       gradientTransform="matrix(1,0,0,0.22222224,12.047241,490.82133)"
       cx="335"
       cy="894.88867"
       fx="335"
       fy="894.88867"
       r="135" />
    <radialGradient
       inkscape:collect="always"
       xlink:href="#linearGradient3888"
       id="radialGradient3078"
       gradientUnits="userSpaceOnUse"
       gradientTransform="matrix(2.0769221,-3.8479378e-8,0,1.2307686,-67.69221,-367.98177)"
       cx="100"
       cy="363.97498"
       fx="100"
       fy="363.97498"
       r="260.00012" />
    <radialGradient
       inkscape:collect="always"
       xlink:href="#linearGradient3925"
       id="radialGradient3080"
       gradientUnits="userSpaceOnUse"
       gradientTransform="matrix(1.3076923,0,-1.2630978e-8,1.6923079,-15.384609,-807.66848)"
       cx="180"
       cy="583.61462"
       fx="180"
       fy="583.61462"
       r="130" />
    <radialGradient
       inkscape:collect="always"
       xlink:href="#linearGradient4189"
       id="radialGradient3082"
       gradientUnits="userSpaceOnUse"
       cx="575"
       cy="767.36218"
       fx="575"
       fy="767.36218"
       r="5" />
    <radialGradient
       inkscape:collect="always"
       xlink:href="#linearGradient3925"
       id="radialGradient3089"
       gradientUnits="userSpaceOnUse"
       gradientTransform="matrix(1.3076923,0,-1.2630978e-8,1.6923079,-43.337368,-587.97017)"
       cx="180"
       cy="583.61462"
       fx="180"
       fy="583.61462"
       r="130" />
    <radialGradient
       inkscape:collect="always"
       xlink:href="#linearGradient3888"
       id="radialGradient3092"
       gradientUnits="userSpaceOnUse"
       gradientTransform="matrix(2.0769221,-3.8479378e-8,0,1.2307686,-95.644969,-148.28346)"
       cx="100"
       cy="363.97498"
       fx="100"
       fy="363.97498"
       r="260.00012" />
    <radialGradient
       inkscape:collect="always"
       xlink:href="#linearGradient3983"
       id="radialGradient3095"
       gradientUnits="userSpaceOnUse"
       gradientTransform="matrix(0.92592593,5.1302294e-8,-2.1698483e-8,0.09876549,27.037039,386.20293)"
       cx="365"
       cy="298.61212"
       fx="365"
       fy="298.61212"
       r="135" />
    <linearGradient
       inkscape:collect="always"
       xlink:href="#linearGradient3888"
       id="linearGradient3097"
       gradientUnits="userSpaceOnUse"
       x1="350"
       y1="782.36218"
       x2="350"
       y2="842.36218" />
    <linearGradient
       inkscape:collect="always"
       xlink:href="#linearGradient4016"
       id="linearGradient3099"
       gradientUnits="userSpaceOnUse"
       x1="342"
       y1="809.10095"
       x2="378.68802"
       y2="809.10095" />
    <linearGradient
       inkscape:collect="always"
       xlink:href="#linearGradient4016"
       id="linearGradient3103"
       gradientUnits="userSpaceOnUse"
       x1="342"
       y1="809.10095"
       x2="378.68802"
       y2="809.10095"
       gradientTransform="translate(12.047241,-172.67669)" />
    <linearGradient
       inkscape:collect="always"
       xlink:href="#linearGradient3888"
       id="linearGradient3106"
       gradientUnits="userSpaceOnUse"
       x1="350"
       y1="782.36218"
       x2="350"
       y2="842.36218"
       gradientTransform="translate(12.047241,-172.67669)" />
    <linearGradient
       inkscape:collect="always"
       xlink:href="#linearGradient6175"
       id="linearGradient3110"
       gradientUnits="userSpaceOnUse"
       gradientTransform="matrix(1,0,0,0.88271602,0,-257.5884)"
       x1="390"
       y1="1135"
       x2="390"
       y2="1225" />
    <linearGradient
       inkscape:collect="always"
       xlink:href="#linearGradient6175"
       id="linearGradient3113"
       gradientUnits="userSpaceOnUse"
       gradientTransform="matrix(1,0,0,0.88271602,-27.952759,-330.25227)"
       x1="390"
       y1="1135"
       x2="390"
       y2="1225" />
    <radialGradient
       inkscape:collect="always"
       xlink:href="#linearGradient4189"
       id="radialGradient3116"
       gradientUnits="userSpaceOnUse"
       cx="575"
       cy="767.36218"
       fx="575"
       fy="767.36218"
       r="5" />
    <radialGradient
       inkscape:collect="always"
       xlink:href="#linearGradient3888"
       id="radialGradient3091"
       gradientUnits="userSpaceOnUse"
       gradientTransform="matrix(2.0769221,-3.8479378e-8,0,1.2307686,-95.644969,-148.28346)"
       cx="100"
       cy="363.97498"
       fx="100"
       fy="363.97498"
       r="260.00012" />
    <radialGradient
       inkscape:collect="always"
       xlink:href="#linearGradient3925"
       id="radialGradient3093"
       gradientUnits="userSpaceOnUse"
       gradientTransform="matrix(1.3076923,0,-1.2630978e-8,1.6923079,-43.337368,-587.97017)"
       cx="180"
       cy="583.61462"
       fx="180"
       fy="583.61462"
       r="130" />
    <radialGradient
       inkscape:collect="always"
       xlink:href="#linearGradient4189"
       id="radialGradient3096"
       gradientUnits="userSpaceOnUse"
       cx="575"
       cy="767.36218"
       fx="575"
       fy="767.36218"
       r="5" />
  </defs>
  <sodipodi:namedview
     id="base"
     pagecolor="#ffffff"
     bordercolor="#666666"
     borderopacity="1.0"
     inkscape:pageopacity="0.0"
     inkscape:pageshadow="2"
     inkscape:zoom="0.98994949"
     inkscape:cx="48.131963"
     inkscape:cy="230.4938"
     inkscape:document-units="px"
     inkscape:current-layer="layer1"
     showgrid="false"
     fit-margin-top="0"
     fit-margin-left="0"
     fit-margin-right="0"
     fit-margin-bottom="0"
     inkscape:window-width="1366"
     inkscape:window-height="718"
     inkscape:window-x="0"
     inkscape:window-y="25"
     inkscape:window-maximized="1" />
  <metadata
     id="metadata3140">
    <rdf:RDF>
      <cc:Work
         rdf:about="">
        <dc:format>image/svg+xml</dc:format>
        <dc:type
           rdf:resource="http://purl.org/dc/dcmitype/StillImage" />
        <dc:title>Empty monitor</dc:title>
        <dc:date>2011-05-25</dc:date>
        <dc:creator>
          <cc:Agent>
            <dc:title>Peter Szollosi (easy)</dc:title>
          </cc:Agent>
        </dc:creator>
        <dc:rights>
          <cc:Agent>
            <dc:title>Peter Szollosi (easy)</dc:title>
          </cc:Agent>
        </dc:rights>
        <cc:license
           rdf:resource="http://creativecommons.org/licenses/publicdomain/" />
        <dc:publisher>
          <cc:Agent>
            <dc:title>Peter Szollosi (easy)</dc:title>
          </cc:Agent>
        </dc:publisher>
        <dc:subject>
          <rdf:Bag>
            <rdf:li>Monitor</rdf:li>
            <rdf:li>LCD</rdf:li>
            <rdf:li>Empty</rdf:li>
            <rdf:li>Screen</rdf:li>
            <rdf:li>On</rdf:li>
            <rdf:li></rdf:li>
          </rdf:Bag>
        </dc:subject>
        <dc:description>An LCD monitor created in Inkscape 0.48 under Linux Mint Debian.</dc:description>
      </cc:Work>
      <cc:License
         rdf:about="http://creativecommons.org/licenses/publicdomain/">
        <cc:permits
           rdf:resource="http://creativecommons.org/ns#Reproduction" />
        <cc:permits
           rdf:resource="http://creativecommons.org/ns#Distribution" />
        <cc:permits
           rdf:resource="http://creativecommons.org/ns#DerivativeWorks" />
      </cc:License>
    </rdf:RDF>
  </metadata>
  <g
     inkscape:label="1. réteg"
     inkscape:groupmode="layer"
     id="layer1"
     transform="translate(-111.54724,-299.18991)">
    <g
       id="g3130">
      <g
         id="g3910">
        <path
           transform="matrix(0.92307692,0,0,0.625,2.816471,-6.55169)"
           d="m 660,1110 c 0,11.0457 -116.40597,20 -260,20 -143.59403,0 -260,-8.9543 -260,-20 0,-11.0457 116.40597,-20 260,-20 143.59403,0 260,8.9543 260,20 z"
           sodipodi:ry="20"
           sodipodi:rx="260"
           sodipodi:cy="1110"
           sodipodi:cx="400"
           id="path6255"
           style="opacity:0.4;fill:#000000;fill-opacity:1;fill-rule:nonzero;stroke:none;filter:url(#filter6203)"
           sodipodi:type="arc" />
        <path
           inkscape:connector-curvature="0"
           id="path6257"
           d="m 372.04724,671.63041 c -74.55844,0 -135,5.92805 -135,13.24074 l 0,8.82716 c 0,6.13805 42.63397,11.27166 100.40625,12.77184 10.73696,9.6156 13.93488,25.44473 9.59375,44.6047 l 50,0 c -4.34113,-19.15997 -1.14321,-34.9891 9.59375,-44.6047 57.77228,-1.50018 100.40625,-6.63379 100.40625,-12.77184 l 0,-8.82716 c 0,-7.31269 -60.44156,-13.24074 -135,-13.24074 z"
           style="opacity:0.3;fill:url(#linearGradient3113);fill-opacity:1;fill-rule:nonzero;stroke:none;filter:url(#filter6199)" />
      </g>
      <g
         id="g3902">
        <path
           sodipodi:nodetypes="cssscsc"
           inkscape:connector-curvature="0"
           id="path6259"
           d="m 237.04724,675.69831 0,1.98718 c 0,8.28427 60.44156,15 135,15 74.55844,0 135,-6.71573 135,-15 l 0,-1.98718 c 0,8.28427 -60.44156,15 -135,15 -74.55844,0 -135,-6.71573 -135,-15 z"
           style="fill:url(#radialGradient3067);fill-opacity:1;fill-rule:nonzero;stroke:none;filter:url(#filter4074)" />
        <path
           id="path6263"
           d="m 237.04724,674.69831 0,10 c 0,8.28427 60.44156,15 135,15 74.55844,0 135,-6.71573 135,-15 l 0,-10 -20,0 -230,0 -20,0 z"
           style="fill:#000000;fill-opacity:1;fill-rule:nonzero;stroke:none"
           inkscape:connector-curvature="0" />
        <path
           transform="matrix(1,0,0,1.5,7.047241,41.14222)"
           d="m 500,422.36218 c 0,5.52285 -60.44156,10 -135,10 -74.55844,0 -135,-4.47715 -135,-10 0,-5.52284 60.44156,-10 135,-10 74.55844,0 135,4.47716 135,10 z"
           sodipodi:ry="10"
           sodipodi:rx="135"
           sodipodi:cy="422.36218"
           sodipodi:cx="365"
           id="path6265"
           style="fill:url(#radialGradient3095);fill-opacity:1;fill-rule:nonzero;stroke:none"
           sodipodi:type="arc" />
        <path
           id="path6267"
           d="m 347.04724,609.69831 c 4.73958,23.69792 0.48134,42.89003 -12.75,53.34375 -1.42479,0.51349 -2.25,1.08215 -2.25,1.65625 0,2.76142 17.90861,5 40,5 22.09139,0 40,-2.23858 40,-5 0,-0.5741 -0.82521,-1.14276 -2.25,-1.65625 -13.23134,-10.45372 -17.48958,-29.64583 -12.75,-53.34375 l -50,0 z"
           style="fill:url(#linearGradient3106);fill-opacity:1;fill-rule:nonzero;stroke:none"
           inkscape:connector-curvature="0" />
        <path
           inkscape:connector-curvature="0"
           id="path6269"
           d="m 354.04724,614.41145 0,41.27404 c 0,1.51966 8.2129,2.7516 18.34401,2.7516 10.13111,0 18.34401,-1.23194 18.34401,-2.7516 l 0,-41.27404 -36.68802,0 z"
           style="opacity:0.7;fill:url(#linearGradient3103);fill-opacity:1;fill-rule:nonzero;stroke:none;filter:url(#filter4086)" />
        <path
           transform="matrix(1,0,0,1.0006409,12.047241,-173.22939)"
           inkscape:connector-curvature="0"
           id="path6271"
           d="m 320.03125,837.15625 c -0.16299,0.18333 -0.28125,0.37373 -0.28125,0.5625 0,0.5741 0.82521,1.14276 2.25,1.65625 6.85627,5.41695 11.30974,13.19795 13.34375,22.71875 8.00136,0.16423 16.22709,0.28125 24.65625,0.28125 8.25523,0 16.31002,-0.0923 24.15625,-0.25 2.03108,-9.53445 6.48031,-17.32738 13.34375,-22.75 1.19737,-0.43153 1.97095,-0.92631 2.1875,-1.40625 -2.39102,2.47587 -19.23571,4.40625 -39.6875,4.40625 -22.09139,0 -40,-2.23858 -40,-5 0,-0.0718 0.006,-0.14725 0.0312,-0.21875 z"
           style="opacity:0.6;fill:#000000;fill-opacity:1;fill-rule:nonzero;stroke:none;filter:url(#filter4070)" />
      </g>
      <g
         id="g3120">
        <g
           id="g3892">
          <path
             id="rect6275"
             d="m 131.01599,299.69831 c -10.59657,0.53368 -18.96875,9.26625 -18.96875,20 l 0,280 c 0,11.08 8.92,20 20,20 l 480,0 c 11.08,0 20,-8.92 20,-20 l 0,-280 c 0,-11.08 -8.92,-20 -20,-20 l -480,0 c -0.34625,0 -0.68943,-0.0172 -1.03125,0 z m 15.6875,30 c 0.17451,-0.0176 0.35194,0 0.53125,0 l 449.625,0 c 2.86893,0 5.1875,2.28732 5.1875,5.15625 l 0,239.65625 c 0,2.86893 -2.31857,5.1875 -5.1875,5.1875 l -449.625,0 c -2.86893,0 -5.1875,-2.31857 -5.1875,-5.1875 l 0,-239.65625 c 0,-2.68962 2.03858,-4.892 4.65625,-5.15625 z"
             style="fill:#cccccf;fill-opacity:1;fill-rule:nonzero;stroke:#000000;stroke-width:1;stroke-miterlimit:4;stroke-opacity:1;stroke-dasharray:none"
             inkscape:connector-curvature="0" />
          <path
             id="rect6277"
             d="m 132.04724,304.69831 c -8.31,0 -15,6.69 -15,15 l 0,280 c 0,8.31 6.69,15 15,15 l 480,0 c 8.31,0 15,-6.69 15,-15 l 0,-280 c 0,-8.31 -6.69,-15 -15,-15 l -480,0 z m 14.65625,25 c 0.17451,-0.0176 0.35194,0 0.53125,0 l 449.625,0 c 2.86893,0 5.1875,2.28732 5.1875,5.15625 l 0,239.65625 c 0,2.86893 -2.31857,5.1875 -5.1875,5.1875 l -449.625,0 c -2.86893,0 -5.1875,-2.31857 -5.1875,-5.1875 l 0,-239.65625 c 0,-2.68962 2.03858,-4.892 4.65625,-5.15625 z"
             style="fill:url(#radialGradient3091);fill-opacity:1;fill-rule:nonzero;stroke:none"
             inkscape:connector-curvature="0" />
          <path
             id="path6279"
             d="m 131.01599,299.69831 c -10.59657,0.53368 -18.96875,9.26625 -18.96875,20 l 0,280 c 0,11.08 8.92,20 20,20 l 80,0 c 28.71956,-6.50707 45.97374,-20.83596 56.0625,-40 l -120.875,0 c -2.86893,0 -5.1875,-2.31857 -5.1875,-5.1875 l 0,-239.65625 c 0,-2.86893 2.31857,-5.15625 5.1875,-5.15625 l 147.875,0 c 13.95233,-18.29574 37.62124,-29.67725 76.9375,-30 l -241.03125,0 z"
             style="fill:url(#radialGradient3093);fill-opacity:1;stroke:none"
             inkscape:connector-curvature="0" />
          <rect
             style="fill:none;stroke:#1e1e1e;stroke-width:3;stroke-miterlimit:4;stroke-opacity:1;stroke-dasharray:none"
             id="rect6281"
             width="460"
             height="250"
             x="142.04724"
             y="329.68549"
             rx="5.1785712"
             ry="5.1785712" />
        </g>
        <g
           id="g3888">
          <path
             sodipodi:type="arc"
             style="opacity:0.4;fill:url(#radialGradient3096);fill-opacity:1;fill-rule:nonzero;stroke:none"
             id="path6285"
             sodipodi:cx="575"
             sodipodi:cy="767.36218"
             sodipodi:rx="5"
             sodipodi:ry="5"
             d="m 580,767.36218 c 0,2.76143 -2.23858,5 -5,5 -2.76142,0 -5,-2.23857 -5,-5 0,-2.76142 2.23858,-5 5,-5 2.76142,0 5,2.23858 5,5 z"
             transform="matrix(1.4285714,0,0,1.4285714,-231.38133,-498.5462)" />
          <path
             transform="matrix(0.2,0,0,0.2,475.04724,444.21306)"
             d="m 580,767.36218 c 0,2.76143 -2.23858,5 -5,5 -2.76142,0 -5,-2.23857 -5,-5 0,-2.76142 2.23858,-5 5,-5 2.76142,0 5,2.23858 5,5 z"
             sodipodi:ry="5"
             sodipodi:rx="5"
             sodipodi:cy="767.36218"
             sodipodi:cx="575"
             id="path6287"
             style="fill:#00ff00;fill-opacity:1;fill-rule:nonzero;stroke:none"
             sodipodi:type="arc" />
        </g>
      </g>
    </g>
    <g
       id="g3112">
      <path
         d="m 258.77841,471.4442 0,-49.896 33.696,0 0,9.432 -22.464,0 0,9.792 19.944,0 0,9.216 -19.944,0 0,12.024 24.12,0 0,9.432 -35.352,0"
         style="font-size:72px;font-style:normal;font-variant:normal;font-weight:bold;font-stretch:normal;text-align:center;line-height:125%;letter-spacing:0px;word-spacing:0px;text-anchor:middle;fill:#000000;fill-opacity:1;stroke:none;font-family:Ubuntu;-inkscape-font-specification:Ubuntu Bold"
         id="path3059"
         inkscape:connector-curvature="0" />
      <path
         d="m 322.46016,451.3562 c -3e-5,-3.45598 -0.45603,-5.90397 -1.368,-7.344 -0.86403,-1.43997 -2.37602,-2.15997 -4.536,-2.16 -0.67202,3e-5 -1.36802,0.048 -2.088,0.144 -0.72002,0.048 -1.41602,0.12003 -2.088,0.216 l 0,29.232 -10.728,0 0,-36.576 c 0.91199,-0.23996 1.96799,-0.47996 3.168,-0.72 1.24799,-0.28796 2.54399,-0.52796 3.888,-0.72 1.39198,-0.23996 2.80798,-0.40796 4.248,-0.504 1.43998,-0.14396 2.85598,-0.21596 4.248,-0.216 2.73597,4e-5 4.94397,0.36004 6.624,1.08 1.72797,0.67204 3.14397,1.48804 4.248,2.448 1.53596,-1.10396 3.28796,-1.96796 5.256,-2.592 2.01596,-0.62396 3.86396,-0.93596 5.544,-0.936 3.02395,4e-5 5.49595,0.43204 7.416,1.296 1.96795,0.81604 3.52794,1.99204 4.68,3.528 1.15194,1.53603 1.94394,3.36003 2.376,5.472 0.43194,2.11203 0.64794,4.46402 0.648,7.056 l 0,21.384 -10.728,0 0,-20.088 c -5e-5,-3.45598 -0.45605,-5.90397 -1.368,-7.344 -0.86405,-1.43997 -2.37605,-2.15997 -4.536,-2.16 -0.57604,3e-5 -1.39204,0.14403 -2.448,0.432 -1.00804,0.28803 -1.84804,0.64803 -2.52,1.08 0.33596,1.10403 0.55196,2.28003 0.648,3.528 0.096,1.20002 0.14396,2.49602 0.144,3.888 l 0,20.664 -10.728,0 0,-20.088"
         style="font-size:72px;font-style:normal;font-variant:normal;font-weight:bold;font-stretch:normal;text-align:center;line-height:125%;letter-spacing:0px;word-spacing:0px;text-anchor:middle;fill:#000000;fill-opacity:1;stroke:none;font-family:Ubuntu;-inkscape-font-specification:Ubuntu Bold"
         id="path3061"
         inkscape:connector-curvature="0" />
      <path
         d="m 387.93178,452.7962 c -3e-5,-3.31198 -0.74403,-5.95197 -2.232,-7.92 -1.48802,-2.01597 -3.69602,-3.02397 -6.624,-3.024 -0.96002,3e-5 -1.84802,0.048 -2.664,0.144 -0.81601,0.048 -1.48801,0.12003 -2.016,0.216 l 0,19.368 c 0.67199,0.43201 1.53599,0.79201 2.592,1.08 1.10398,0.28801 2.20798,0.43201 3.312,0.432 5.08798,1e-5 7.63197,-3.43199 7.632,-10.296 m 10.944,-0.288 c -4e-5,2.92802 -0.36004,5.59201 -1.08,7.992 -0.72004,2.40001 -1.77603,4.46401 -3.168,6.192 -1.39203,1.728 -3.12003,3.072 -5.184,4.032 -2.06403,0.96 -4.44002,1.44 -7.128,1.44 -1.48802,0 -2.88002,-0.144 -4.176,-0.432 -1.29602,-0.288 -2.54401,-0.696 -3.744,-1.224 l 0,14.256 -10.728,0 0,-49.896 c 0.96,-0.28796 2.064,-0.55196 3.312,-0.792 1.24799,-0.28796 2.54399,-0.52796 3.888,-0.72 1.39199,-0.19196 2.78399,-0.33596 4.176,-0.432 1.43998,-0.14396 2.80798,-0.21596 4.104,-0.216 3.11998,4e-5 5.90398,0.48004 8.352,1.44 2.44797,0.91204 4.51197,2.23204 6.192,3.96 1.67997,1.68003 2.95196,3.74403 3.816,6.192 0.91196,2.44803 1.36796,5.18402 1.368,8.208"
         style="font-size:72px;font-style:normal;font-variant:normal;font-weight:bold;font-stretch:normal;text-align:center;line-height:125%;letter-spacing:0px;word-spacing:0px;text-anchor:middle;fill:#000000;fill-opacity:1;stroke:none;font-family:Ubuntu;-inkscape-font-specification:Ubuntu Bold"
         id="path3063"
         inkscape:connector-curvature="0" />
      <path
         d="m 406.76091,424.1402 10.728,-1.728 0,11.16 12.888,0 0,8.928 -12.888,0 0,13.32 c -2e-5,2.25601 0.38398,4.05601 1.152,5.4 0.81598,1.34401 2.42398,2.01601 4.824,2.016 1.15197,1e-5 2.32797,-0.096 3.528,-0.288 1.24797,-0.23999 2.37597,-0.55199 3.384,-0.936 l 1.512,8.352 c -1.29603,0.528 -2.73603,0.984 -4.32,1.368 -1.58403,0.384 -3.52802,0.576 -5.832,0.576 -2.92802,0 -5.35202,-0.384 -7.272,-1.152 -1.92001,-0.816 -3.45601,-1.92 -4.608,-3.312 -1.15201,-1.43999 -1.96801,-3.16799 -2.448,-5.184 -0.43201,-2.01599 -0.64801,-4.24799 -0.648,-6.696 l 0,-31.824"
         style="font-size:72px;font-style:normal;font-variant:normal;font-weight:bold;font-stretch:normal;text-align:center;line-height:125%;letter-spacing:0px;word-spacing:0px;text-anchor:middle;fill:#000000;fill-opacity:1;stroke:none;font-family:Ubuntu;-inkscape-font-specification:Ubuntu Bold"
         id="path3065"
         inkscape:connector-curvature="0" />
      <path
         d="m 473.36991,433.5722 c -2.16004,7.29603 -4.41604,14.13602 -6.768,20.52 -2.35203,6.38401 -4.92003,12.57601 -7.704,18.576 -1.00803,2.16 -2.01602,3.984 -3.024,5.472 -1.00802,1.53599 -2.11202,2.78399 -3.312,3.744 -1.20002,1.00799 -2.56802,1.72799 -4.104,2.16 -1.48801,0.47999 -3.24001,0.71999 -5.256,0.72 -1.68001,-1e-5 -3.24001,-0.16801 -4.68,-0.504 -1.392,-0.28801 -2.544,-0.62401 -3.456,-1.008 l 1.872,-8.568 c 1.10399,0.384 2.08799,0.648 2.952,0.792 0.86399,0.144 1.77599,0.216 2.736,0.216 1.91999,0 3.38399,-0.528 4.392,-1.584 1.05598,-1.008 1.94398,-2.424 2.664,-4.248 -2.44802,-4.79999 -4.89601,-10.17599 -7.344,-16.128 -2.44801,-5.99998 -4.75201,-12.71997 -6.912,-20.16 l 11.376,0 c 0.47998,1.87204 1.03198,3.91203 1.656,6.12 0.67198,2.16003 1.36798,4.36803 2.088,6.624 0.71998,2.20802 1.43998,4.36802 2.16,6.48 0.76798,2.11202 1.48798,4.03202 2.16,5.76 0.62398,-1.72798 1.27198,-3.64798 1.944,-5.76 0.67197,-2.11198 1.31997,-4.27198 1.944,-6.48 0.67197,-2.25597 1.29597,-4.46397 1.872,-6.624 0.62397,-2.20797 1.17597,-4.24796 1.656,-6.12 l 11.088,0"
         style="font-size:72px;font-style:normal;font-variant:normal;font-weight:bold;font-stretch:normal;text-align:center;line-height:125%;letter-spacing:0px;word-spacing:0px;text-anchor:middle;fill:#000000;fill-opacity:1;stroke:none;font-family:Ubuntu;-inkscape-font-specification:Ubuntu Bold"
         id="path3067"
         inkscape:connector-curvature="0" />
      <path
         d="m 485.55478,465.7562 c -10e-6,2.112 -0.69601,3.744 -2.088,4.896 -1.34401,1.152 -2.88001,1.728 -4.608,1.728 -1.728,0 -3.288,-0.576 -4.68,-1.728 -1.344,-1.152 -2.016,-2.784 -2.016,-4.896 0,-2.11199 0.672,-3.74399 2.016,-4.896 1.392,-1.15199 2.952,-1.72799 4.68,-1.728 1.72799,10e-6 3.26399,0.57601 4.608,1.728 1.39199,1.15201 2.08799,2.78401 2.088,4.896"
         style="font-size:72px;font-style:normal;font-variant:normal;font-weight:bold;font-stretch:normal;text-align:center;line-height:125%;letter-spacing:0px;word-spacing:0px;text-anchor:middle;fill:#000000;fill-opacity:1;stroke:none;font-family:Ubuntu;-inkscape-font-specification:Ubuntu Bold"
         id="path3069"
         inkscape:connector-curvature="0" />
    </g>
  </g>
</svg>
